<?xml version="1.0" encoding="utf-8"?>
<!-- Generator: Adobe Illustrator 28.0.0, SVG Export Plug-In . SVG Version: 6.00 Build 0)  -->
<svg version="1.1" id="LOGO_LAYER" xmlns="http://www.w3.org/2000/svg" xmlns:xlink="http://www.w3.org/1999/xlink" x="0px" y="0px"
	 viewBox="0 0 21.3 22.3" style="enable-background:new 0 0 21.3 22.3;" xml:space="preserve">
<path id="HEART_SHAPE" d="M16,0.1c-1.7,0-4.8,2-6.4,4.6c-0.4-1-1.9-2-3.7-2s-5.5,1.8-5.5,7.6s7.6,9,9.1,11.4
	c0.1,0.2,0.5,0.3,0.6-0.1C11.4,18,20.9,14,20.9,6.6S16,0.1,16,0.1z M18.3,6.5c-0.2,5.9-7.7,10.5-8.6,13.4c-0.9-1.8-7.2-4.3-7.1-10
	c0-4.6,2.5-6.1,3.7-6.1s2.6,1.4,2.7,2C9.1,6.4,9.8,7,10,5.9c0.2-1.1,2.4-4.1,5.1-4.1S18.4,4.3,18.3,6.5L18.3,6.5z"/>
</svg>
